# xmcd
#
# Track frame offsets: 
#        150
#        14003
#        26787
#        40113
#        54573
#        70514
#        82066
#        97972
#        111627
#        130360
#        144348
#        157327
#        171217
#        183779
#        196418
#        212932
#        231271
#        244161
#        256416
#        271951
#        286990
#
# Disc length: 4007 seconds
#
# Revision: 0
# Processed by: cddbd v1.5.2PL0 Copyright (c) Steve Scherf et al.
# Submitted via: ExactAudioCopy v0.99pb4
#
DISCID=3d0fa515
DTITLE=Various Artist - Schlagerfestival 2013 - CD1
DYEAR=2013
DGENRE=Chanson
TTITLE0=De Romeo's and Jan Smit - Zingen Lachen Dansen
TTITLE1=Christoff - 1000 Sterren Hotel
TTITLE2=Laura Lynn - Wij Vieren Feest
TTITLE3=Hansi Hinterseer - Hände Zum Himmel
TTITLE4=Kristina Bach - Matador
TTITLE5=Kastelruther Spatzen - Tränen Passen Nicht Zu Dir
TTITLE6=Frans Bauer - Hé Lekker Ding
TTITLE7=Willy Sommers - Ik Moet Aan Je Denken
TTITLE8=Dana Winner - Zeven Regenbogen
TTITLE9=Salim Seghers - Oh Wat Een Dag
TTITLE10=Lisa Del Bo - Liefde Is Een Kaartspel
TTITLE11=Paul Severs - Oh Little Darling
TTITLE12=Marva - Fiesta
TTITLE13=Eddy Wally - Rood Is Je Mond
TTITLE14=Frank Galan - Land Van Mijn Dromen
TTITLE15=Heino - Blau Blüht Der Enzian
TTITLE16=Gerhard Wendland - Tanze Mit Mir In Den Morgen [Mitternachtst
TTITLE16=ango]
TTITLE17=Conny Froboess - Zwei Kleine Italiener
TTITLE18=Marianne Weber - Als De Rozen Weer In Bloei Staan
TTITLE19=Django Wagner - Mooie Blauwe Ogen
TTITLE20=Yves Segers - Een Beetje Gay (Dat Is Okay)
EXTD=
EXTT0=
EXTT1=
EXTT2=
EXTT3=
EXTT4=
EXTT5=
EXTT6=
EXTT7=
EXTT8=
EXTT9=
EXTT10=
EXTT11=
EXTT12=
EXTT13=
EXTT14=
EXTT15=
EXTT16=
EXTT17=
EXTT18=
EXTT19=
EXTT20=
PLAYORDER=
